<?xml version="1.0" encoding="utf-8"?>
<!-- Generator: Adobe Illustrator 22.0.0, SVG Export Plug-In . SVG Version: 6.00 Build 0)  -->
<svg version="1.1" id="Layer_1" xmlns="http://www.w3.org/2000/svg" xmlns:xlink="http://www.w3.org/1999/xlink" x="0px" y="0px"
	 viewBox="0 0 800 300" style="enable-background:new 0 0 800 300;" xml:space="preserve">
<style type="text/css">
	.st0{fill:#FFFFFF;}
	.st1{fill:#29ABE2;}
	.st2{fill:#29627A;}
</style>
<path class="st0" d="M181.9,248.3c0-42.8,0-85.1,0-128.2c-12.9,0-25.4-0.1-38,0.1c-1,0-2.4,1.7-2.9,2.9c-3.9,9.4-7.3,19-11.5,28.2
	c-5.4,11.8-14.9,18.7-28,18.7c-9.3,0-18.7-1-27.9-2.6c-10.1-1.7-20-4.8-30-7c-9.5-2-15.5,0.6-17.9,8c-3.3,10.4-3.2,21.1,0,31.6
	c1.8,5.9,5.8,8.7,12,8.3c5.2-0.3,10.4-1.5,15.6-2.4c13.2-2.5,26.3-5.9,39.6-7.3c19.6-2.2,31,5.2,38.5,23.3c3.1,7.6,6,15.2,8.6,23
	c1,2.9,2.4,3.7,5.4,3.7c10.8-0.2,21.7-0.1,32.5-0.1C179.2,248.5,180.4,248.4,181.9,248.3z M35.8,184.4c0-6.1,5.2-11.4,11.3-11.4
	c6.1,0,11.3,5.2,11.3,11.4c0,6.1-5.3,11.4-11.3,11.4C41,195.7,35.9,190.5,35.8,184.4z"/>
<path class="st0" d="M251.1,177.4v-22.3c-34.3,0-23.2,0-57.5,0c0,7.5,0,14.7,0,22.3C228,177.4,216.8,177.4,251.1,177.4z"/>
<path class="st1" d="M353.1,226.3v-34.8c-33.6,0-131.6,0-159.5,0c0,14.4,0,28.2,0,42h0c0,5,0,10,0,15.1c40.5,0,125.1,0,159.5,0
	L353.1,226.3C353.1,226.3,353.1,226.3,353.1,226.3z"/>
<path class="st0" d="M251.1,142.7v-22.4c-33.9,0-35.6,0-57.5,0c0,7.7,0,15,0,22.4C215.7,142.7,217.3,142.7,251.1,142.7z"/>
<polygon class="st1" points="563.3,269.8 664.3,271.8 600.6,218.6 "/>
<polygon class="st2" points="703.9,245.1 563.3,269.8 573.3,213.2 729.8,210.9 "/>
<path class="st1" d="M334.7,248.6c0,0-49.2-54.3-49.2-55.7s492.1-4.8,492.1-4.8l-73.6,57L334.7,248.6z"/>
<path class="st0" d="M756.6,99.8c-0.7-0.4-1.4-0.8-2.2-1c-0.8-0.2-1.6-0.3-2.4-0.3c-0.8,0-1.4,0.3-1.9,0.9L747,103v-0.1
	c-1.2,1.6-2.7,3.5-4.6,5.6c-1.9,2.1-4,4.4-6.4,6.7c-2.3,2.3-4.9,4.6-7.6,6.8c-2.7,2.2-5.7,4.1-8.8,5.7c0.9-2.8,1.6-5.6,2.2-8.6
	c0.5-2.9,0.8-5.8,0.8-8.7c0-2.7-0.3-5.2-0.9-7.6c-0.6-2.4-1.6-4.5-2.9-6.3c-1.3-1.8-3.1-3.2-5.2-4.3c-2.1-1.1-4.8-1.6-8-1.5
	c-7.7,0.2-13.8,2-18.4,5.5c-4.5,3.5-7.5,7.8-8.8,12.8c-3.4,3.8-6.2,7.9-8.5,12.3c-1.5,2.9-2.9,5.8-4,8.7c-2.9,4.3-5.8,8.3-8.5,11.9
	c-3.8,4.9-7.4,8.9-10.6,11.8c-3.2,2.9-5.7,4.3-7.4,4.1c-1.2,0-1.8-0.8-1.8-2.5c0-1.4,0.3-3.3,1-5.5c0.6-2.2,1.5-4.8,2.6-7.7
	c1.1-2.9,2.4-6.1,3.9-9.5c1.5-3.4,3.1-7,4.8-10.8c0.8-2,1.7-4.1,2.7-6s1.9-4,2.7-6H655c0.7-1.4,1.2-2.7,1.4-3.9
	c0.2-1.2,0.4-2.3,0.4-3.3c0-3.7-1.3-6.3-4-7.9c-2.7-1.6-5.8-2.5-9.4-2.7c-1.7-0.1-3.7,0.4-6,1.6c-2.3,1.2-4.7,2.8-7.3,4.8
	c-2.6,2.1-5.3,4.4-8.1,7.2c-2.8,2.7-5.5,5.6-8.2,8.6l4.5-8.2v0.1c1-1.8,1.9-3.5,2.8-5.3c0.9-1.7,1.8-3.5,2.7-5.3
	c0.5-1,0.6-1.9,0.4-2.8c-0.2-0.9-1.4-1.3-3.5-1.3c-1.3,0-2.8,0.1-4.6,0.2c-1.8,0.1-3.6,0.4-5.3,0.7c-1.7,0.3-3.3,0.8-4.8,1.3
	c-1.4,0.6-2.5,1.3-3.1,2.2c-2.6,4.3-5,8.7-7.3,13.2c-1.4,2.8-2.7,5.6-3.9,8.5c-0.1,0.1-0.1,0.2-0.2,0.3c-2.2,2.9-4.4,5.9-6.7,9
	c-2.3,3.1-4.7,6.2-7.2,9.3c-2.4,3.1-4.8,5.9-7,8.5c-2.2,2.6-4.2,4.8-6.1,6.6c-1.8,1.8-3.3,3.1-4.4,3.7c0-0.2,0.1-0.5,0.3-1.1
	c0.8-2,2.4-6.2,4.9-12.6c2.4-6.4,6.1-15.1,10.9-25.9c0.4-1.1,0.3-2.1-0.3-3.1c-0.6-1-1.9-1.2-3.9-0.8c-0.9,0.2-1.9,0.4-3.1,0.8
	c-1.2,0.4-2.4,0.7-3.5,1.1c-1.1,0.4-2.2,0.8-3.3,1.3c-1,0.5-1.9,0.9-2.6,1.3l-1,0.7l-0.3,0.5c-1.6,1.5-3.8,3.7-6.7,6.7
	c-2.9,2.9-5.9,6.2-9.1,9.6c-3.1,3.5-6.2,7-9.1,10.5c-2.9,3.5-5.1,6.5-6.7,9c0.3-3.3,1.1-6.9,2.4-10.7c1.3-3.8,2.9-7.7,4.7-11.6
	c1.8-3.9,4-7.6,6.4-11.2c2.4-3.6,4.9-6.8,7.6-9.7c2.6-2.9,5.3-5.2,8.1-7c2.7-1.8,5.4-2.9,8-3.1c0.7,0.1,1.2,0.4,1.4,0.8
	c0.2,0.4,0.4,0.9,0.6,1.5c0.1,0.5,0.3,1.1,0.4,1.6c0.2,0.5,0.4,0.9,0.8,1.2c2,1.2,3.7,1.6,5,1.3c1.3-0.3,2.3-0.9,3-1.9
	c0.6-1,0.9-2.3,0.8-3.8c-0.1-1.5-0.6-3-1.6-4.3c-1-1.4-2.3-2.5-4.1-3.5c-1.8-0.9-4-1.4-6.7-1.3c-6.6,0.3-12.4,1.5-17.5,3.8
	c-2.6,1.2-5.1,2.5-7.4,4c-0.6-0.2-1.3-0.3-2-0.3c-0.9,0-1.6,0.4-2.1,1.1c-0.4,0.6-1.3,1.7-2.8,3.1c-1.5,1.4-3.2,3-5.2,4.8
	c-2,1.8-4.1,3.6-6.4,5.5c-2.3,1.9-4.6,3.7-6.9,5.2c-2.3,1.6-4.4,2.9-6.4,3.9c-1.9,1.1-3.5,1.6-4.7,1.6c-0.6-0.3-0.7-1.2-0.3-2.9
	c0.4-1.7,1.1-3.7,2.2-6.1c1.1-2.4,2.2-4.9,3.6-7.5c1.3-2.6,2.6-5.1,3.8-7.4c1.2-2.3,2.7-4.9,4.5-8c0.8-1.5,0.3-2.9-1.6-4.1
	c-1.9-1.2-4.2-1.9-7.1-1.9c-2,0-3.9,0.3-5.7,0.8h0.2c-2.4,0.7-4.4,2.1-6,4c-1.6,2-2.9,4.2-3.9,6.8s-1.7,5.3-2.1,8.3
	c-0.4,2.9-0.6,5.7-0.6,8.3c0,3.2,0.2,5.8,0.7,7.9c0.2,0.9,0.4,1.5,0.6,1.9c-1.2,2.1-2.6,4.3-4.2,6.8c-1.6,2.5-3.2,4.9-4.9,7.4
	c-1.7,2.5-3.5,4.9-5.3,7.3c-1.9,2.4-3.6,4.5-5.3,6.4c-1.7,1.9-3.3,3.5-4.8,4.7c-1.5,1.2-2.7,1.9-3.7,2.2c-0.4-0.1-0.7-0.5-0.7-1.1
	c-0.1-0.7,0-1.4,0.3-2.3l1.3-4.4c0.9-3.1,2.3-7.3,4.3-12.6c2-5.3,4.1-10.7,6.2-16.4c2.1-5.7,4.2-11.1,6.1-16.2
	c1.9-5.1,3.4-9.1,4.3-12c0.4-1.3-0.2-2.2-1.9-2.7c-1.7-0.4-3.8-0.5-6.3-0.1c-2.5,0.4-5,1.1-7.6,2.2c-2.5,1.1-4.4,2.6-5.6,4.3
	c-2.4,5.7-4.5,10.9-6.4,15.9c-0.5,0.5-1,1-1.5,1.5c-2.3,2.3-4.9,4.6-7.6,6.8c-2.7,2.2-5.7,4.1-8.8,5.7c0.9-2.8,1.6-5.6,2.2-8.6
	c0.5-2.9,0.8-5.8,0.8-8.7c0-2.7-0.3-5.2-0.9-7.6c-0.6-2.4-1.6-4.5-2.9-6.3c-1.3-1.8-3.1-3.2-5.2-4.3c-2.1-1.1-4.8-1.6-8-1.5
	c-7.7,0.2-13.8,2-18.4,5.5c-4.5,3.5-7.5,7.8-8.8,12.8c-3.4,3.8-6.2,7.9-8.5,12.3c-0.2,0.4-0.4,0.9-0.6,1.3c-0.2,0.2-0.4,0.5-0.7,0.7
	c-2,2.1-4.3,4.4-6.9,7c-2.6,2.5-5.4,5.3-8.3,8.2c-1.1,1-2.1,2-2.9,2.9c0.7-6.4,1.2-13,1.5-20c0.1-1-0.5-1.6-1.9-1.7
	c-1.3-0.2-2.9-0.2-4.7,0.1c-1.8,0.2-3.6,0.6-5.4,1c-1.8,0.4-3.1,0.8-4,1h-0.1c-0.8,0.3-1.3,1.9-1.5,4.9c-1.3,2.4-2.8,5.2-4.5,8.3
	c-1.7,3.1-3.7,6.3-5.9,9.5c-2.2,3.2-4.7,6.4-7.5,9.6c-2.8,3.2-5.8,6.1-9.1,8.6c-3.3,2.5-6.8,4.7-10.7,6.4c-3.9,1.7-8,2.7-12.3,3
	h-0.5c-0.7,0-1.6,0-2.8-0.1c-1.2,0-2.6-0.3-4-0.8c-1.5-0.5-3-1.4-4.5-2.6c-1.6-1.2-3-2.9-4.3-5.2c-1.3-2.2-2.4-5.1-3.2-8.7
	c-0.8-3.6-1.3-8-1.3-13.2c0-1.1,0.1-2.6,0.3-4.6c0.2-1.9,0.5-4.1,0.9-6.7c0.4-2.5,0.9-5.4,1.6-8.5c0.6-3.1,1.4-6.4,2.3-9.7
	c1.9,0.3,3.9,0.5,5.9,0.7c2,0.2,4.1,0.2,6.2,0.2c6.1,0,12.4-0.6,18.7-1.9c6.3-1.2,12.5-3.1,18.5-5.4c6-2.4,11.7-5.4,17-8.9
	c5.3-3.5,10-7.5,14.2-12c4.1-4.5,7.4-9.4,10-14.8c2.6-5.4,4.1-11.2,4.6-17.4c0.2-4.1-0.4-7.7-2.1-10.6c-1.6-3-3.9-5.4-6.7-7.2
	c-2.8-1.8-6.1-3.2-9.8-4c-3.7-0.8-7.4-1.1-11.2-0.9c-6.7,0.4-13,1.6-18.8,3.5c-5.8,2-11.3,4.6-16.4,7.8c-5.1,3.2-9.8,6.9-14.1,11.1
	c-4.3,4.2-8.3,8.7-11.8,13.4c-3.6,4.8-6.8,9.7-9.6,14.9c-2.9,5.2-5.4,10.3-7.6,15.4c-1.8-1.7-3.3-3.8-4.5-6.2
	c-1.3-2.4-2.2-5.2-2.9-8.3c-0.3-1.4-0.5-2.9-0.5-4.4c0-3.1,0.5-6.3,1.6-9.4c1.1-3.1,2.3-6,3.8-8.7c1.4-2.7,2.8-5,4.2-6.9
	c1.4-1.9,2.4-3.4,3.1-4.3l0.4-0.4c0.6-0.8,0.5-1.4-0.4-1.7c-0.8-0.3-2.1-0.5-3.7-0.4c-1.6,0-3.5,0.2-5.7,0.6
	c-2.1,0.4-4.2,0.9-6.2,1.5c-2,0.6-3.8,1.3-5.4,2c-1.6,0.7-2.6,1.5-3.1,2.2c-0.6,1-1.2,2.2-2,3.8c-0.7,1.6-1.4,3.3-2,5.3
	c-0.6,1.9-1.2,4-1.6,6.3c-0.5,2.2-0.7,4.6-0.7,7c0,1.3,0.1,2.6,0.2,3.9c0.1,1.3,0.4,2.6,0.7,3.8c1.5,5.8,4.1,10.8,7.7,14.9
	c3.7,4.1,8,7.5,13,10.1c-2.3,6.8-3.9,13.2-5,19c-1.1,5.9-1.6,10.8-1.5,14.7c0,2.4,0.2,5,0.7,7.9c0.5,2.9,1.2,5.8,2.3,8.8
	c1.1,3,2.5,5.8,4.3,8.7c1.8,2.8,4.2,5.3,7,7.5c2.9,2.2,6.3,3.9,10.3,5.2c4,1.3,8.7,2,14.2,2.1c5.5-0.2,10.7-1.4,15.5-3.5
	c4.8-2.1,9.3-4.8,13.4-8.1c4.1-3.3,7.8-7,11.1-11.1c3.3-4.1,6.3-8.3,8.9-12.5c-0.3,2.4-0.6,4.9-0.9,7.5c-0.4,2.6-0.8,5.3-1.3,8
	c-6.1,6.3-12.1,12.7-18,19.2c-5.9,6.5-11.1,12.7-15.7,18.7c-4.6,6-8.2,11.6-11,16.7c-2.7,5.1-4,9.5-3.8,13c0.1,1.2,0.4,2.4,0.9,3.7
	c0.5,1.2,1.3,2.3,2.4,3.3c1.1,1,2.4,1.7,4,2.3c1.6,0.6,3.7,0.8,6.1,0.6c0.8-0.1,2.5-0.4,4.8-1.1c2.4-0.6,5.2-1.9,8.4-3.8
	c3.2-1.9,6.8-4.7,10.6-8.3c3.8-3.6,7.6-8.5,11.2-14.7c3.6-6.2,7-13.8,10.2-22.9c3.1-9.1,5.7-20,7.6-32.8l4.8-4.8
	c3.2-3.2,6.2-6.3,9.2-9.3c-0.4,1.8-0.7,3.5-0.9,5.1c-0.4,3.6-0.4,6.5-0.1,8.7c0.8,4,2.5,7.2,5.1,9.7c2.6,2.5,6,3.8,10.2,3.9
	c4.8,0.2,9.1-0.7,12.9-2.5c3.8-1.9,7.2-4.3,10.3-7.2c2.6-2.5,5-5.3,7.1-8.3c-0.6,4.6-1.4,9.3-2.7,12.9c-2.4,6.7-4,12-1.2,13
	c3.5,1.1,2.7-5.1,3.8-12.5c0.4-3,0.5-9,1-14.5c0.1-0.1,0.2-0.2,0.3-0.4c2.4-3.7,4.6-7.2,6.7-10.6c3.8-1,7.5-2.5,11.2-4.7
	c2.2-1.3,4.2-2.6,6.2-4.1c-0.1,0.3-0.2,0.7-0.3,1c-2.4,8.9-3.6,16.3-3.6,22.1c0,3.4,0.4,6.4,1.2,9c0.5,1.5,1.2,2.7,2.1,3.7
	c0.9,0.9,1.8,1.7,2.8,2.2c0.9,0.5,1.8,0.9,2.7,1.1c0.8,0.2,1.6,0.3,2.2,0.3c0.1,0,0.2,0,0.3,0c-0.4,1.5-0.8,3.2-1.1,4.8
	c-0.6,3.3-0.6,6.4,0.8,6.3c0.4,0,0.9-0.7,1.2-2c0.5-2.1,0.3-6,0.2-9.2c1.8-0.1,3.6-0.7,5.4-1.6c2.3-1.2,4.7-2.8,7-4.8
	c2.3-2,4.7-4.3,7-7c2.3-2.6,4.5-5.3,6.6-8.1c2.1-2.8,4-5.5,5.8-8.3c1.7-2.8,3.3-5.3,4.7-7.6c1.6,0.8,3.1,1.2,4.6,1.3
	c1.4,0,2.5,0,3.1-0.1c2.1-0.4,4.5-1.5,7.2-3.1c2.4-1.4,4.9-3.1,7.4-5c-0.7,1.5-1.3,3-1.9,4.5c-1.6,4.3-2.8,8.5-3.5,12.4
	c-0.7,4-1.1,7.3-1.1,10.1c0,2.6,0.2,4.4,0.6,5.5v-0.1c0.4,1.3,0.9,2.8,1.6,4.4c0.7,1.6,1.5,3.1,2.5,4.3c0.9,1.3,2,2.2,3.2,2.9
	c1.2,0.6,2.5,0.6,3.9-0.1c0.7-0.4,1.6-1.1,2.6-2.1c1.1-1.1,2.2-2.4,3.4-3.9c1.2-1.6,2.6-3.3,4.1-5.3s3-4,4.5-6c2-2.6,4-5.3,6-8
	c2-2.8,4-5.4,6-7.9c-1.7,5-3,9.7-3.8,14.2c-0.9,4.5-1.3,8.1-1.3,10.9c0,1.1,0,2,0.2,2.9c0.1,0.8,0.3,1.5,0.6,1.9v-0.1
	c1,1.9,2.3,3,3.8,3.3c0.4,0.1,0.8,0.1,1.1,0.2c-0.9,7.7-2.4,15.1-3.2,17.5c-2.4,7.8-2,13.6,0.7,12.5c3.4-1.4,3.3-4.6,3.8-10.7
	c0.5-6.1,0.3-12.6,0.1-19.1c0.5,0.1,1.1,0.1,1.5,0.1c1,0,2.2-0.3,3.5-0.8c0,0.1,0,0.2-0.1,0.3c-0.3,1.2-0.4,2.5-0.5,3.1
	c0,6.3,2.4,3.9,1.4-1.8c-0.1-0.6-0.1-1.3-0.1-1.9c1.5-0.7,3.3-1.9,5.1-3.3c3.7-3,7.7-6.8,11.8-11.3c3.4-3.7,6.7-7.7,10-11.9
	c-0.7,4.1-1,8.3-1,12.5c0,1,0,1.9,0,2.9c0,0.9,0.1,1.9,0.2,2.9c0,0.1,0,0.2,0.1,0.3c0.1,0.1,0.1,0.2,0.1,0.3
	c0.1,0.7,0.4,1.6,0.7,2.7c0.4,1.1,1,2.1,1.7,3.1c0.7,1,1.7,1.8,2.9,2.5c0.3,0.2,0.6,0.2,0.9,0.4c-1.4,7-2.2,12.3,0.8,12.9
	c3.5,0.6,2-5.1,1.9-12.2c0.3,0,0.6,0.1,0.9,0.1c1.7,0,2.6-0.3,2.8-1c0.2-0.7,0.2-1.6,0-2.7c-0.1-0.7-0.1-1.5-0.1-2.5
	c0-0.9,0.1-2,0.3-3.3c0.4-2.7,1-5.3,1.6-8c0.5-1.7,1.5-3.6,2.7-5.9c1.7-3,3.8-6.2,6.2-9.5c2.4-3.3,5.1-6.8,8-10.2
	c2.9-3.5,5.7-6.7,8.5-9.7c2.7-3,5.3-5.6,7.6-7.9c2.3-2.3,4.2-3.9,5.5-4.7c0.2-0.2,0.5-0.3,0.8-0.5c0.3-0.1,0.4,0,0.2,0.3
	c-2,3.2-3.9,6.9-5.8,11c-1.9,4.1-3.6,8.4-5.2,12.8c-1.6,4.4-2.9,8.7-3.8,13c-0.9,4.3-1.4,8.3-1.4,11.8c0,4.3,0.8,7.9,2.3,10.8
	c1.5,2.9,4.2,4.8,8,5.5c3.6,0.3,7.2-0.5,10.9-2.3c3.6-1.8,7.2-4.3,10.7-7.5c2.6-2.4,5.2-5.1,7.8-8.1c0,1.5,0,2.8,0.2,3.9
	c0.8,4,2.5,7.2,5.1,9.7c2.6,2.5,6,3.8,10.2,3.9c4.8,0.2,9.1-0.7,12.9-2.5c3.8-1.9,7.2-4.3,10.3-7.2c3.1-2.9,5.8-6.2,8.2-9.9
	c2.4-3.7,4.6-7.2,6.7-10.6c3.8-1,7.5-2.5,11.2-4.7c3.6-2.1,7.1-4.5,10.3-7.2c2.1-1.7,4-3.4,5.8-5.2c0,0.2,0,0.4,0,0.6
	c-0.1,4.3-0.6,9-0.5,10.6c0.6,6.7,1.8,3.6,2.1-0.7c0.3-3.9-0.9-6.9-1.2-10.2c0-0.2,0-0.4,0-0.6c0.9-0.9,1.8-1.7,2.6-2.6
	c2.6-2.8,4.9-5.4,6.8-7.8c1.9-2.4,3.3-4.3,4.3-5.9c1-1.6,1.5-2.5,1.5-2.8C757.7,100.7,757.3,100.2,756.6,99.8z M295.3,88.5
	c2.1-5.1,4.5-10,7.3-14.8c2.8-4.8,5.9-9.3,9.3-13.5c3.4-4.2,7.2-8,11.3-11.3c4.2-3.3,8.7-6,13.6-8c4.9-2.1,10.2-3.3,15.9-3.7
	c1.8-0.1,3.5-0.1,5.3,0.2c1.8,0.3,3.4,0.9,4.8,1.7c1.5,0.9,2.7,2,3.8,3.4c1,1.4,1.7,3.2,2.1,5.3c0.3,4.3-0.7,8.7-2.7,13.2
	c-2.1,4.5-4.9,8.8-8.6,12.9c-3.6,4.2-7.9,8-12.8,11.6c-4.9,3.6-10,6.7-15.5,9.4c-5.5,2.7-11,4.8-16.7,6.4
	c-5.7,1.6-11.1,2.4-16.2,2.4c-2.4,0-4.6-0.1-6.5-0.4C291.4,98.5,293.2,93.6,295.3,88.5z M334.9,203.3c-4.5,8.9-10.5,17.3-17.9,25.2
	c-0.9,0.8-2,1.5-3.1,2.1c-1.1,0.6-2.1,0.8-2.8,0.8c-0.7,0-1.2-0.1-1.6-0.4c-0.4-0.3-0.6-0.7-0.6-1.2c-0.3-2.6,0.6-5.9,2.5-9.7
	c1.9-3.9,4.6-8.1,8-12.7c3.4-4.6,7.3-9.5,11.8-14.7c4.5-5.2,9.3-10.5,14.3-15.8C342.9,185.6,339.4,194.4,334.9,203.3z M412.6,146.6
	c-1.7,2.5-3.5,4.8-5.3,6.8c-1.8,2-3.7,3.7-5.7,5c-1.9,1.3-3.9,2.1-5.9,2.4c-0.8,0.2-1.3-0.1-1.5-0.8s-0.4-1.8-0.4-3.2
	c-0.2-2.9,0.5-6.7,2.2-11.3c1.7-4.6,3.8-9.4,6.4-14.4c1.6,1.7,3.6,3.2,6.1,4.5c2.4,1.3,5.4,2.3,8.9,2.8
	C415.9,141.4,414.3,144.1,412.6,146.6z M413,128.9c-2.5-1.2-4.5-3.1-6-5.6c2.8-4.5,5.7-8.6,8.6-12.2c2.9-3.6,5.6-6.2,7.9-7.7
	c0.7-1.1,0.5-1.7-0.5-1.8c-1-0.1-2.4,0-4.2,0.5c-1.7,0.4-3.6,1.1-5.7,2c-2,0.9-3.7,1.8-5,2.7c1.4-2.3,3.4-4.4,5.9-6.2
	c2.5-1.8,5.8-2.8,9.7-2.9c0.2,0,0.6,0.2,1.1,0.5c0.5,0.4,1.1,0.9,1.6,1.7c0.5,0.8,1,1.9,1.4,3.2c0.4,1.3,0.5,2.9,0.4,4.8
	c-0.5,2.9-1.4,6.4-2.7,10.5c-1.3,4.1-2.9,8.5-4.9,13C418.1,131,415.5,130.2,413,128.9z M694.2,146.6c-1.7,2.5-3.5,4.8-5.3,6.8
	c-1.8,2-3.7,3.7-5.7,5c-1.9,1.3-3.9,2.1-5.9,2.4c-0.8,0.2-1.3-0.1-1.5-0.8s-0.4-1.8-0.4-3.2c-0.2-2.9,0.5-6.7,2.2-11.3
	c1.7-4.6,3.8-9.4,6.4-14.4c1.6,1.7,3.6,3.2,6.1,4.5c2.4,1.3,5.4,2.3,8.9,2.8C697.5,141.4,695.9,144.1,694.2,146.6z M707.3,118.4
	c-1.3,4.1-2.9,8.5-4.9,13c-2.6-0.4-5.1-1.3-7.6-2.5c-2.5-1.2-4.5-3.1-6-5.6c2.8-4.5,5.7-8.6,8.6-12.2c2.9-3.6,5.6-6.2,7.9-7.7
	c0.7-1.1,0.5-1.7-0.5-1.8c-1-0.1-2.4,0-4.2,0.5c-1.7,0.4-3.6,1.1-5.7,2c-2,0.9-3.7,1.8-5,2.7c1.4-2.3,3.4-4.4,5.9-6.2
	c2.5-1.8,5.8-2.8,9.7-2.9c0.2,0,0.6,0.2,1.1,0.5c0.5,0.4,1.1,0.9,1.6,1.7c0.5,0.8,1,1.9,1.4,3.2c0.4,1.3,0.5,2.9,0.4,4.8
	C709.5,110.8,708.6,114.3,707.3,118.4z"/>
</svg>
